<svg xmlns="http://www.w3.org/2000/svg" width="400" height="238" fill="none" viewBox="0 0 400 238">
  <g clip-path="url(#a)">
    <path fill="url(#b)" d="M400 237.945c0-12.648-5.17-25.209-15.225-36.909-10.056-11.699-24.783-22.332-43.352-31.288-18.569-8.957-40.625-16.056-64.885-20.902a402.505 402.505 0 0 0-153.076 0c-24.26 4.846-46.308 11.945-64.885 20.902-18.577 8.956-33.28 19.589-43.352 31.288C5.155 212.736 0 225.297 0 237.945h400Z"/>
    <path fill="#B6BAC6" d="M271.723 77.795h-89.802l85.565 90.064 11.383-81.115a7.325 7.325 0 0 0-1.424-6.19 7.33 7.33 0 0 0-5.722-2.76Z"/>
    <path fill="#f2f2f2" d="M244.442 32.411h-84.687a9.436 9.436 0 0 0-9.439 9.486V152.57h103.557V41.897a9.487 9.487 0 0 0-9.431-9.486Z"/>
    <path fill="#DADCE2" d="M251.162 95.652a10.94 10.94 0 0 0-10.672-8.537h-70.451l-1.43-6.325A6.784 6.784 0 0 0 162 75.502h-34.269a6.787 6.787 0 0 0-6.613 5.274 6.789 6.789 0 0 0-.004 3.019l17.226 76.008a10.334 10.334 0 0 0 3.629 5.792 10.335 10.335 0 0 0 6.45 2.263h119.067l-16.324-72.206Z"/>
    <path fill="#C4C4C4" d="M181.233 58.735a2.372 2.372 0 0 1-2.372-2.371v-3.795a2.37 2.37 0 0 1 4.743 0v3.779a2.36 2.36 0 0 1-.689 1.687 2.364 2.364 0 0 1-1.682.7Zm41.731 0a2.372 2.372 0 0 1-2.371-2.371v-3.795a2.374 2.374 0 0 1 2.371-2.371 2.37 2.37 0 0 1 2.372 2.371v3.779a2.378 2.378 0 0 1-.689 1.687 2.385 2.385 0 0 1-1.683.7Zm-20.861 2.791a10.763 10.763 0 0 1-8.126-3.62 2.393 2.393 0 0 1 .213-3.376 2.396 2.396 0 0 1 2.634-.353c.282.138.534.33.741.566a6.189 6.189 0 0 0 4.534 1.983 6.17 6.17 0 0 0 4.534-1.983 2.39 2.39 0 0 1 4.181 1.43 2.393 2.393 0 0 1-.592 1.732 10.748 10.748 0 0 1-8.119 3.62Z"/>
    <path fill="#D9D9D9" d="m183.794 4.737-4.348 1.897 4.742 10.868 4.347-1.896-4.741-10.869Zm32.807.006-4.742 10.869 4.348 1.896 4.741-10.868-4.347-1.897ZM202.372 0h-4.743v11.858h4.743V0Z"/>
  </g>
  <defs>
    <linearGradient id="b" x1="200" x2="200" y1="141.502" y2="202.372" gradientUnits="userSpaceOnUse">
      <stop stop-color="#E6E7EE" stop-opacity=".5"/>
      <stop offset="1" stop-color="#E6E7EE" stop-opacity="0"/>
    </linearGradient>
    <clipPath id="a">
      <path fill="#fff" d="M0 0h400v237.945H0z"/>
    </clipPath>
  </defs>
</svg>
