<?xml version="1.0" encoding="UTF-8"?>
<svg id="Layer_1" data-name="Layer 1" xmlns="http://www.w3.org/2000/svg" xmlns:xlink="http://www.w3.org/1999/xlink" viewBox="0 0 155.14 49.07">
  <defs>
    <linearGradient id="linear-gradient" x1="36.32" y1="12.19" x2="59.72" y2="12.19" gradientUnits="userSpaceOnUse">
      <stop offset="0" stop-color="#f1cc87"/>
      <stop offset="1" stop-color="#ebb858"/>
    </linearGradient>
    <filter id="drop-shadow-1" filterUnits="userSpaceOnUse">
      <feOffset dx="3" dy="1"/>
      <feGaussianBlur result="blur" stdDeviation="3"/>
      <feFlood flood-color="#231f20" flood-opacity=".35"/>
      <feComposite in2="blur" operator="in"/>
      <feComposite in="SourceGraphic"/>
    </filter>
  </defs>
  <path d="M59.72,7.53c0-1.43-1.15-2.59-2.58-2.59h-5.14s0,0,0,0h-13.11c-1.42,0-2.57,1.16-2.57,2.59v9.32c0,1.43,1.16,2.59,2.58,2.59h10.07s0,0,0,0h4.3c.68,0,1.33-.27,1.82-.76l3.88-3.91c.49-.48,.75-1.15,.75-1.83V7.53Z" fill="url(#linear-gradient)"/>
  <g>
    <polygon points="45.47 8.86 42.71 13.89 39.96 8.86 38.18 8.86 41.82 15.52 41.82 15.52 43.6 15.52 43.61 15.52 47.25 8.86 45.47 8.86" fill="#fff"/>
    <polygon points="48.48 8.86 44.83 15.52 46.62 15.52 50.26 8.86 48.48 8.86" fill="#fff"/>
    <path d="M56.25,8.86h-4.52l-3.64,6.65h1.78l.89-1.63h3.77l2.91-5.02h-1.18Zm-2.72,3.66h-2.03l1.26-2.3h2.1l-1.33,2.3Z" fill="#fff"/>
  </g>
  <g>
    <path d="M142.17,18.76l.53,.94c.03,.05,.08,.09,.13,.1l1.06,.21c.11,.02,.18,.13,.16,.24,0,.04-.02,.07-.05,.1l-.73,.79s-.06,.1-.05,.16l.12,1.07c.01,.11-.07,.21-.18,.22-.04,0-.07,0-.11-.02l-.98-.45c-.05-.02-.11-.02-.17,0l-.98,.45c-.1,.05-.22,0-.27-.1-.02-.03-.02-.07-.02-.11l.12-1.07c0-.06-.01-.12-.05-.16l-.73-.79c-.07-.08-.07-.21,.01-.28,.03-.02,.06-.04,.1-.05l1.06-.21c.06-.01,.11-.05,.13-.1l.53-.94c.05-.1,.18-.13,.27-.08,.03,.02,.06,.04,.08,.08h0Z" fill="#fee162"/>
    <path d="M137.02,18.76l.53,.94c.03,.05,.08,.09,.13,.1l1.06,.21c.11,.02,.18,.13,.16,.24,0,.04-.02,.07-.05,.1l-.73,.79s-.06,.1-.05,.16l.12,1.07c.01,.11-.07,.21-.18,.22-.04,0-.07,0-.11-.02l-.98-.45c-.05-.02-.11-.02-.17,0l-.98,.45c-.1,.05-.22,0-.27-.1-.02-.03-.02-.07-.02-.11l.12-1.07c0-.06-.01-.12-.05-.16l-.73-.79c-.07-.08-.07-.21,.01-.28,.03-.02,.06-.04,.1-.05l1.06-.21c.06-.01,.11-.05,.13-.1l.53-.94c.05-.1,.18-.13,.27-.08,.03,.02,.06,.04,.08,.08h0Z" fill="#fee162"/>
    <path d="M147.26,18.76l.53,.94c.03,.05,.08,.09,.13,.1l1.05,.22c.11,.02,.18,.13,.16,.24,0,.04-.02,.07-.05,.1l-.73,.79s-.06,.1-.05,.16l.12,1.07c.01,.11-.07,.21-.18,.22-.04,0-.07,0-.11-.02l-.98-.45c-.05-.02-.11-.02-.17,0l-.98,.44c-.1,.05-.22,0-.26-.1-.01-.03-.02-.07-.02-.11l.13-1.07c0-.06-.01-.12-.05-.16l-.72-.8c-.07-.08-.07-.21,.01-.28,.03-.02,.06-.04,.1-.05l1.06-.21c.06-.01,.11-.05,.14-.1l.54-.94c.05-.1,.18-.13,.27-.07,.03,.02,.06,.04,.08,.08h0Z" fill="#fee162"/>
  </g>
  <g>
    <path d="M8.31,22.78c.13,.18,.27,.35,.4,.54,.14,.2,.35,.33,.59,.39,.19,.05,.36,.15,.51,.28,.29,.29,.47,.68,.5,1.1,.02,.48-.17,.71-.65,.75-.19,.02-.31,.08-.31,.27,0,.2,.18,.21,.34,.23,.71,.05,1.19-.42,1.21-1.22,.02-.27-.03-.55-.14-.8-.11-.25-.27-.48-.48-.65-.87-.75-1.44-1.67-1.56-2.83-.09-.88-.02-1.76,.22-2.61,.22-.78,.5-1.54,.75-2.31,.03-.07,.06-.14,.1-.21,.09,.14,.18,.25,.25,.38,.18,.3,.42,.56,.71,.76,.2,.14,.35,.32,.46,.54,.11,.21,.16,.45,.15,.69,0,.15-.04,.29-.14,.4-.1,.11-.23,.18-.38,.19-.03,0-.07,0-.1,.01l-.29,.17c.09,.11,.16,.29,.28,.33,.55,.2,1.15-.28,1.18-.92,.02-.46-.1-.92-.35-1.32-1.2-1.94-.98-4.44,.57-6.3,.13-.16,.27-.31,.45-.5,.02,.19,.05,.35,.07,.5,.05,.39,.22,.76,.49,1.06,.12,.14,.21,.27,.11,.47-.04,.1-.11,.18-.2,.23-.09,.06-.19,.09-.3,.09h-.07c-.14-.02-.31-.07-.32,.15,0,.19,.14,.29,.33,.31,.13,.02,.26,0,.38-.03,.12-.04,.24-.1,.33-.18s.17-.19,.23-.3c.05-.12,.08-.24,.08-.37,0-.42-.09-.83-.23-1.22-.27-.69-.15-1.32,.18-1.93,.55-1.04,1.45-1.63,2.61-1.83,.21-.03,.43-.05,.64-.06,.04,0,.08,0,.12,.01-.46,.84-.38,1.55,.35,2.18,.75,.65,.99,1.45,.95,2.39-.02,.28,.06,.57,.23,.79,.17,.23,.42,.38,.7,.44,.16,.04,.34,.03,.38-.14,.04-.18-.01-.38-.02-.57-.08,.01-.21,0-.23,.04-.07,.14-.18,.23-.31,.14-.1-.08-.23-.23-.22-.35,0-.22,.07-.44,.17-.64,.09-.14,.15-.3,.17-.47,.02-.17,0-.33-.05-.49,1.12,.8,1.96,1.76,1.95,3.23,0,.2,.06,.41,.03,.6-.05,.39,.14,.64,.43,.84,.19,.12,.39,.22,.6,.28,.08,.03,.17,.03,.26,.01,.09-.02,.17-.06,.24-.11,.07-.06,.12-.13,.15-.21,.03-.08,.04-.17,.03-.26,0-.06-.12-.14-.19-.15-.04,0-.08,.01-.12,.03-.04,.02-.07,.05-.09,.08-.14,.22-.32,.22-.52,.13-.22-.1-.35-.27-.32-.51,.03-.31,.11-.63,.15-.94,.05-.33,.09-.66,.13-1.02,1.67,1.06,2.98,2.42,3.8,4.23-1.06,.07-2.11,.12-3.15,.23-1.04,.12-2.08,.32-3.09,.9,.1-.13,.15-.21,.21-.29,.41-.59,.67-1.22,.46-1.95-.17-.56-.57-.94-1.05-1.23-.43-.26-.88-.49-1.31-.74-.24-.13-.46-.27-.68-.42-.46-.34-.57-.68-.41-1.23,.03-.1,.07-.2,.12-.34-.07,0-.14,.01-.21,.03-.95,.31-1.42,1.03-1.66,1.95-.15,.58-.05,1.15,.02,1.72,.08,.83-.1,1.66-.5,2.39-.61,1.16-1.24,2.33-1.79,3.53-.69,1.51-1.14,3.11-1.34,4.76-.2,1.71-.04,3.44,.48,5.07,.47,1.47,.99,2.91,1.85,4.21,1.31,1.96,3.07,3.4,5.15,4.47,2.03,1.04,4.2,1.67,6.44,2.07,.39,.07,.78,.08,1.17,.12,.09,0,.18,.03,.26,.07,1.18,.64,2.46,.93,3.77,1.12,.17,.02,.34,.05,.5,.09-.52,.05-1.04,.11-1.56,.13-1.31,.05-2.63,.12-3.93,.09-2.61-.07-5.18-.45-7.61-1.49-1.48-.61-2.81-1.53-3.91-2.7-.07-.08-.14-.16-.25-.29,.29,.01,.58,.01,.87,0,.23-.03,.45-.09,.66-.18,.2-.09,.5-.08,.66,.07,.19,.18,.12,.37,.01,.54-.07,.11-.15,.24-.01,.32,.06,.04,.12,.06,.18,.07,.07,.01,.13,.01,.2,0,.52-.19,.62-.94,.17-1.28-.46-.35-1.01-.47-1.56-.56-.86-.14-1.68-.36-2.43-.84-1.11-.71-1.84-1.73-2.4-2.9-.34-.75-.61-1.52-.79-2.32,.59,.21,1.18,.39,1.75,.61,.21,.08,.4,.19,.58,.32,.18,.13,.2,.31,.07,.51-.13,.19-.24,.38-.34,.58-.02,.05-.03,.1-.03,.15s.02,.1,.04,.14c.04,.03,.09,.04,.14,.05,.05,0,.1,0,.15-.02,.13-.04,.26-.11,.36-.21,.1-.09,.18-.21,.24-.34,.05-.13,.08-.27,.07-.41s-.05-.28-.12-.4c-.13-.3-.38-.54-.68-.66-1.29-.5-2.02-1.52-2.51-2.75-.42-1.11-.65-2.27-.69-3.45-.05-1.03-.01-2.07-.01-3.1l.06-.03" fill="#fff"/>
    <path d="M26.02,41.4c-1.99-.19-3.93-.7-5.76-1.51-2.47-1.1-4.57-2.68-6.15-4.89-.74-1.03-1.19-2.22-1.58-3.42-.54-1.64-.78-3.36-.72-5.08,.02-1.02,.21-2.03,.55-3,.64-1.76,1.33-3.5,2.27-5.12,.2-.35,.44-.67,.67-1,.22-.32,.26-.7,.26-1.06-.01-.64-.06-1.3-.12-1.95-.03-.35,0-.7,.11-1.03,.11-.33,.29-.64,.52-.9,.45,1.06,1.38,1.54,2.29,2.02,.64,.34,1.11,.83,1.27,1.56,.07,.29,.04,.6-.1,.86-.14,.27-.36,.47-.64,.59-.37,.16-.74,.26-1.15,.15-.14-.03-.26-.1-.36-.2-.09-.1-.15-.23-.16-.37-.04-.35,0-.68,.34-.87,.06-.03,.12-.04,.18-.04,.06,0,.13,.02,.18,.05,.23,.15,.32,.03,.41-.14,.1-.21,.05-.44-.15-.48-.19-.04-.38-.04-.57-.01-.78,.15-1.27,.97-.99,1.61,.25,.55,1.16,1.06,1.77,.98h.07c-.57,.4-1.18,.79-1.73,1.24-1.22,.97-2.24,2.11-2.82,3.58-.49,1.29-.81,2.64-.94,4.01-.14,1.3-.14,2.59,.21,3.85,.86,3.12,2.55,5.62,5.43,7.21,1.19,.66,2.48,1.03,3.82,1.21h.05c.5-.09,.8,.16,1.12,.51,.65,.71,1.4,1.29,2.4,1.63" fill="#fff"/>
    <path d="M35.47,25.82c.57-.02,1.12,.34,1.21,.78,.03,.13,.03,.27,0,.4-.04,.13-.11,.25-.2,.35-.28,.28-.58,.52-.92,.71-.99,.52-2.08,.77-3.17,.99-1.99,.39-4.01,.65-6.03,.76-2.23,.13-4.47,.23-6.71,.31-.82,.03-1.64,0-2.46,.03,1.27-.05,2.55-.06,3.82-.15,2.19-.15,4.38-.31,6.57-.54,1.89-.2,3.77-.52,5.58-1.14,.47-.17,.92-.39,1.38-.6,.15-.08,.29-.17,.42-.28,.62-.48,.74-.87,.52-1.6" fill="#fff"/>
    <path d="M34.44,22.45c.32,.13,.65,.24,.96,.39,.22,.11,.3,.57,.21,.87-.11,.35-.36,.58-.65,.78-.75,.51-1.61,.76-2.48,.99-1.6,.41-3.24,.68-4.89,.8-2.43,.2-4.87,.35-7.3,.49-1.23,.07-2.47,.06-3.71,.05,.82-.03,1.65-.04,2.47-.1,2.25-.15,4.51-.28,6.75-.5,2.05-.2,4.08-.51,6.05-1.14,.68-.2,1.33-.49,1.93-.88,.09-.07,.19-.14,.27-.22,.5-.45,.6-.86,.4-1.55" fill="#fff"/>
    <path d="M18.64,33.46c1.1-.04,2.2-.06,3.3-.14,2-.14,4-.3,5.99-.49,1.72-.17,3.44-.45,5.09-.97,.6-.19,1.17-.48,1.75-.74,.16-.08,.3-.18,.42-.31,.47-.43,.55-.76,.3-1.42,.34,.13,.65,.22,.94,.35,.27,.13,.38,.6,.19,.92-.14,.24-.32,.44-.54,.6-.66,.48-1.44,.7-2.21,.9-1.46,.38-2.95,.63-4.45,.75-2.39,.19-4.78,.36-7.17,.49-1.2,.06-2.4,.01-3.6,.01v.05Z" fill="#fff"/>
    <path d="M18.09,23.53c1.43-.08,2.87-.14,4.3-.25,2.56-.19,5.11-.42,7.58-1.16,.54-.18,1.06-.4,1.57-.65,.16-.09,.32-.19,.45-.32,.45-.39,.54-.73,.31-1.37,.3,.11,.59,.24,.87,.38,.21,.12,.23,.58,.09,.86-.17,.33-.46,.53-.77,.7-.81,.45-1.7,.67-2.58,.86-1.82,.37-3.66,.61-5.52,.7-1.99,.11-3.97,.18-5.96,.26-.12,0-.23,0-.35,0h-.01Z" fill="#fff"/>
    <path d="M34.28,33.01c.26,.07,.51,.16,.75,.26,.25,.12,.33,.61,.11,.87-.19,.24-.43,.44-.7,.59-.74,.41-1.56,.59-2.38,.75-1.84,.34-3.71,.53-5.58,.57-1.51,.05-3.02,.06-4.54,.07-.76,.01-1.51,0-2.27,0v-.06c1.34-.03,2.68-.03,4.01-.08,2.49-.09,4.98-.22,7.42-.68,.82-.13,1.61-.38,2.37-.72,.14-.07,.28-.15,.41-.24,.52-.37,.62-.69,.38-1.33" fill="#fff"/>
    <path d="M23.26,38.06c1.51-.07,2.98-.1,4.45-.22,1.02-.08,2.01-.27,3.02-.44,.24-.05,.48-.15,.69-.27,.3-.15,.34-.29,.23-.62,.11,0,.22,.03,.32,.07,.11,.06,.27,.17,.28,.26,0,.07-.01,.13-.04,.19-.03,.06-.08,.11-.13,.15-.43,.18-.86,.39-1.32,.45-1.12,.17-2.25,.3-3.38,.36-1.26,.07-2.52,.07-3.78,.09-.1,0-.19-.01-.33-.02" fill="#fff"/>
    <path d="M18.49,20.89c1.1-.06,2.21-.11,3.32-.19,1.97-.15,3.94-.32,5.84-.9,.41-.14,.81-.31,1.2-.5,.13-.07,.24-.15,.35-.25,.35-.3,.42-.57,.24-1.06,.23,.08,.46,.18,.67,.29,.16,.1,.18,.45,.07,.67-.14,.24-.34,.42-.59,.54-.62,.34-1.31,.51-1.99,.66-1.4,.29-2.82,.47-4.25,.54-1.53,.09-3.06,.14-4.59,.2h-.28Z" fill="#fff"/>
  </g>
  <g filter="url(#drop-shadow-1)" opacity=".3">
    <rect x="47.36" y="22.77" width="3.31" height="17.84" fill="#e6e7e8"/>
    <path d="M62.91,26.85c-1.99,0-3.64,.66-4.69,1.91v-1.76h-3.03v13.61h3.19v-6.88c0-2.73,1.53-4.1,3.8-4.1,2.04,0,3.24,1.17,3.24,3.59v7.39h3.19v-7.8c0-4.1-2.42-5.96-5.68-5.96Z" fill="#e6e7e8"/>
    <path d="M80.37,26.85c-1.89,0-3.49,.61-4.54,1.73v-6.88h-3.19v18.91h3.19v-6.88c0-2.73,1.53-4.1,3.8-4.1,2.04,0,3.24,1.17,3.24,3.59v7.39h3.19v-7.8c0-4.1-2.42-5.96-5.68-5.96Z" fill="#e6e7e8"/>
    <path d="M96.34,26.85c-4.18,0-7.24,2.88-7.24,6.96s3.06,6.98,7.24,6.98,7.26-2.91,7.26-6.98-3.03-6.96-7.26-6.96Zm0,11.21c-2.29,0-4.03-1.66-4.03-4.26s1.73-4.26,4.03-4.26,4.05,1.66,4.05,4.26-1.73,4.26-4.05,4.26Z" fill="#e6e7e8"/>
    <path d="M116.65,33.88c0,2.73-1.5,4.1-3.72,4.1-2.01,0-3.19-1.17-3.19-3.64v-7.34h-3.19v7.77c0,4.1,2.37,6.01,5.86,6.01,1.76,0,3.36-.66,4.38-1.91v1.73h3.03v-13.61h-3.19v6.88Z" fill="#e6e7e8"/>
    <path d="M125.98,30.95c0-.89,.92-1.53,2.85-1.53,1.3,0,2.6,.25,3.9,1.02l1.22-2.42c-1.22-.74-3.29-1.17-5.1-1.17-3.67,0-5.99,1.68-5.99,4.26,0,5.43,8.41,2.98,8.41,5.58,0,.94-.84,1.5-2.85,1.5-1.71,0-3.54-.56-4.74-1.35l-1.22,2.42c1.22,.87,3.49,1.53,5.76,1.53,3.82,0,6.17-1.66,6.17-4.21,0-5.33-8.41-2.88-8.41-5.63Z" fill="#e6e7e8"/>
    <path d="M149.94,33.88c0-4.26-2.91-7.03-6.88-7.03s-7.03,2.91-7.03,6.96,2.96,6.98,7.52,6.98c2.34,0,4.26-.76,5.48-2.22l-1.71-1.96c-.97,.99-2.17,1.48-3.7,1.48-2.37,0-4.03-1.27-4.41-3.26h10.68c.03-.31,.05-.69,.05-.94Zm-10.76-1.17c.31-1.99,1.81-3.31,3.87-3.31s3.59,1.35,3.85,3.31h-7.72Z" fill="#e6e7e8"/>
  </g>
  <g>
    <rect x="46.35" y="21.7" width="3.31" height="17.84" fill="#fff"/>
    <path d="M61.89,25.78c-1.99,0-3.64,.66-4.69,1.91v-1.76h-3.03v13.61h3.19v-6.88c0-2.73,1.53-4.1,3.8-4.1,2.04,0,3.24,1.17,3.24,3.59v7.39h3.19v-7.8c0-4.1-2.42-5.96-5.68-5.96Z" fill="#fff"/>
    <path d="M79.35,25.78c-1.89,0-3.49,.61-4.54,1.73v-6.88h-3.19v18.91h3.19v-6.88c0-2.73,1.53-4.1,3.8-4.1,2.04,0,3.24,1.17,3.24,3.59v7.39h3.19v-7.8c0-4.1-2.42-5.96-5.68-5.96Z" fill="#fff"/>
    <path d="M95.32,25.78c-4.18,0-7.24,2.88-7.24,6.96s3.06,6.98,7.24,6.98,7.26-2.91,7.26-6.98-3.03-6.96-7.26-6.96Zm0,11.21c-2.29,0-4.03-1.66-4.03-4.26s1.73-4.26,4.03-4.26,4.05,1.66,4.05,4.26-1.73,4.26-4.05,4.26Z" fill="#fff"/>
    <path d="M115.64,32.81c0,2.73-1.5,4.1-3.72,4.1-2.01,0-3.19-1.17-3.19-3.64v-7.34h-3.19v7.77c0,4.1,2.37,6.01,5.86,6.01,1.76,0,3.36-.66,4.38-1.91v1.73h3.03v-13.61h-3.19v6.88Z" fill="#fff"/>
    <path d="M124.96,29.88c0-.89,.92-1.53,2.85-1.53,1.3,0,2.6,.25,3.9,1.02l1.22-2.42c-1.22-.74-3.29-1.17-5.1-1.17-3.67,0-5.99,1.68-5.99,4.26,0,5.43,8.41,2.98,8.41,5.58,0,.94-.84,1.5-2.85,1.5-1.71,0-3.54-.56-4.74-1.35l-1.22,2.42c1.22,.87,3.49,1.53,5.76,1.53,3.82,0,6.17-1.66,6.17-4.21,0-5.33-8.41-2.88-8.41-5.63Z" fill="#fff"/>
    <path d="M148.92,32.81c0-4.26-2.91-7.03-6.88-7.03s-7.03,2.91-7.03,6.96,2.96,6.98,7.52,6.98c2.34,0,4.26-.76,5.48-2.22l-1.71-1.96c-.97,.99-2.17,1.48-3.7,1.48-2.37,0-4.03-1.27-4.41-3.26h10.68c.03-.31,.05-.69,.05-.94Zm-10.76-1.17c.31-1.99,1.81-3.31,3.87-3.31s3.59,1.35,3.85,3.31h-7.72Z" fill="#fff"/>
  </g>
</svg>